<svg width="108" height="20" viewBox="0 0 108 20" fill="none" xmlns="http://www.w3.org/2000/svg">
                                <path d="M50.7412 19.6423V0.0013939H54.3711C54.8696 0.00136132 55.359 0.13521 55.7882 0.388961C56.2173 0.64271 56.5704 1.00705 56.8106 1.4439L63.9187 14.3652H64.0204V2.78476C64.0202 2.41902 64.0922 2.05686 64.2321 1.71895C64.3721 1.38104 64.5772 1.07401 64.8357 0.815394C65.0943 0.556783 65.4015 0.351664 65.7392 0.211755C66.0772 0.0718467 66.4393 -0.000109594 66.8051 1.25287e-07H68.1599V19.6409H62.8842L54.9824 5.25067H54.8822V19.6409H50.7412V19.6423Z" fill="#04BBF2"></path>
                                <path d="M39.1411 11.5763H29.1981C29.4335 13.2931 29.918 14.3903 30.649 15.1478C31.38 15.9052 32.4633 16.284 33.8933 16.284H40.5586V19.6424H32.7571C30.0976 19.6424 28.0777 18.801 26.6974 17.118C25.3172 15.435 24.627 13.0031 24.627 9.82193C24.627 6.64173 25.3172 4.2097 26.6974 2.52585C28.0777 0.841999 30.0976 0.00053731 32.7571 0.00146561H40.5586V0.573736C40.5587 0.939467 40.4867 1.30164 40.3468 1.63954C40.2069 1.97746 40.0018 2.28449 39.7432 2.5431C39.4846 2.80171 39.1775 3.00683 38.8397 3.14674C38.5018 3.28665 38.1396 3.3586 37.7738 3.35849H33.8933C33.4153 3.36033 32.9382 3.40273 32.4675 3.4852C31.9597 3.57484 31.4798 3.78229 31.0667 4.09089C30.5755 4.47839 30.182 4.97583 29.918 5.54314C29.5894 6.1906 29.3499 6.9397 29.1981 8.06753H39.1411C39.4366 8.06753 39.72 8.18489 39.9288 8.39379C40.1377 8.60269 40.255 8.88601 40.255 9.18143V10.4638C40.2546 10.759 40.1371 11.042 39.9283 11.2506C39.7194 11.4592 39.4363 11.5763 39.1411 11.5763Z" fill="white"></path>
                                <path d="M85.4186 11.5763H75.4742C75.7095 13.2931 76.194 14.3903 76.9264 15.1478C77.6588 15.9052 78.7393 16.284 80.1707 16.284H86.836V19.6424H79.0345C76.375 19.6424 74.3557 18.801 72.9762 17.118C71.5968 15.435 70.9067 13.0031 70.9058 9.82193C70.9058 6.64173 71.596 4.2097 72.9762 2.52585C74.3565 0.841999 76.376 0.00053731 79.0345 0.00146561H86.836V0.573736C86.836 1.3123 86.5426 2.02061 86.0203 2.54286C85.4981 3.0651 84.7898 3.35849 84.0512 3.35849H80.1707C79.6927 3.36033 79.2156 3.40273 78.7449 3.4852C78.2371 3.57484 77.7573 3.78229 77.3441 4.09089C76.9055 4.41113 76.5226 4.89522 76.1954 5.54314C75.8668 6.1906 75.6273 6.9397 75.4756 8.06753H85.4199C85.7154 8.06753 85.9988 8.18489 86.2076 8.39379C86.4165 8.60269 86.5339 8.88601 86.5339 9.18143V10.4638C86.5329 10.7591 86.4149 11.0419 86.206 11.2504C85.997 11.4589 85.7137 11.5761 85.4186 11.5763Z" fill="white"></path>
                                <path d="M43.6985 19.6424V1.39384C43.6985 1.02456 43.8452 0.670406 44.1063 0.409283C44.3674 0.148161 44.7216 0.00146484 45.0909 0.00146484H46.447C46.8163 0.00146484 47.1705 0.148161 47.4316 0.409283C47.6927 0.670406 47.8394 1.02456 47.8394 1.39384V19.6424H43.6985Z" fill="#04BBF2"></path>
                                <path d="M95.4115 1.30752L98.8354 6.76704L102.258 1.30752C102.509 0.907888 102.857 0.578431 103.269 0.350002C103.682 0.121575 104.146 0.0016523 104.618 0.00146489H108L100.931 9.82193L108 19.6424H103.078L98.8368 12.8768L94.5956 19.6424H89.6721L96.7148 9.82193L89.6721 0.00146489H93.0542C93.5257 0.00137968 93.9893 0.121208 94.4018 0.349685C94.8142 0.578159 95.1616 0.907771 95.4115 1.30752Z" fill="white"></path>
                                <path d="M21.316 11.6019C20.7012 10.7772 19.852 10.157 18.8793 9.82242C19.9222 9.3685 20.6922 8.71223 21.1893 7.85359C21.6982 6.9448 21.9554 5.91665 21.9342 4.87528C21.9509 4.1382 21.7814 3.40881 21.4413 2.75469C21.121 2.15883 20.6726 1.64144 20.1283 1.23978C19.5634 0.826863 18.9311 0.514993 18.2597 0.318023C17.568 0.108552 16.8492 0.00205533 16.1266 0.00195312H1.67921C1.23387 0.00199002 0.806777 0.178918 0.491871 0.493824C0.176965 0.808729 3.69228e-05 1.23582 0 1.68116V3.23367H14.84C15.7994 3.23367 16.5104 3.45273 16.9731 3.89087C17.4358 4.32901 17.667 4.9347 17.6665 5.70793C17.6665 6.48209 17.4354 7.09242 16.9731 7.53891C16.5091 7.98447 15.798 8.20725 14.84 8.20725H8.41834V11.439H14.84C15.7994 11.439 16.5104 11.658 16.9731 12.0962C17.4358 12.5343 17.667 13.14 17.6665 13.9132C17.6665 14.7041 17.4354 15.3186 16.9731 15.7567C16.5091 16.1953 15.798 16.4144 14.84 16.414H8.4253V19.6457H16.128C16.8876 19.6475 17.6454 19.5671 18.3878 19.4062C19.0848 19.2614 19.7458 18.9783 20.3316 18.5735C20.907 18.1642 21.3712 17.6175 21.6822 16.9834C22.0191 16.3179 22.1876 15.4806 22.1876 14.4716C22.1876 13.3577 21.897 12.4011 21.316 11.6019Z" fill="white"></path>
                                <path fill-rule="evenodd" clip-rule="evenodd" d="M3.03818 4.16895H0V7.40066H3.03818V4.16895ZM4.01284 7.40066V4.16895H7.40886V7.40066H4.01284Z" fill="#04BBF2"></path>
                                <path fill-rule="evenodd" clip-rule="evenodd" d="M3.03818 8.20703H0V11.4387H3.03818V8.20703ZM4.01284 11.4387V8.20703H7.40886V11.4387H4.01284Z" fill="#04BBF2"></path>
                                <path fill-rule="evenodd" clip-rule="evenodd" d="M3.03818 12.3086H0V15.5403H3.03818V12.3086ZM4.01284 15.5403V12.3086H7.40886V15.5403H4.01284Z" fill="#04BBF2"></path>
                                <path fill-rule="evenodd" clip-rule="evenodd" d="M3.03818 16.4121H0V19.6438H3.03818V16.4121ZM4.01284 19.6438V16.4121H7.40886V19.6438H4.01284Z" fill="white"></path>
                            </svg>